<?xml version="1.0" encoding="UTF-8" standalone="no"?>
<!-- Created with Inkscape (http://www.inkscape.org/) -->

<svg
   width="111.12809mm"
   height="111.125mm"
   viewBox="0 0 111.12809 111.125"
   version="1.1"
   id="svg5"
   xml:space="preserve"
   inkscape:version="1.2.2 (732a01da63, 2022-12-09)"
   sodipodi:docname="box.svg"
   xmlns:inkscape="http://www.inkscape.org/namespaces/inkscape"
   xmlns:sodipodi="http://sodipodi.sourceforge.net/DTD/sodipodi-0.dtd"
   xmlns="http://www.w3.org/2000/svg"
   xmlns:svg="http://www.w3.org/2000/svg"><sodipodi:namedview
     id="namedview7"
     pagecolor="#ffffff"
     bordercolor="#000000"
     borderopacity="0.25"
     inkscape:showpageshadow="2"
     inkscape:pageopacity="0.0"
     inkscape:pagecheckerboard="0"
     inkscape:deskcolor="#d1d1d1"
     inkscape:document-units="mm"
     showgrid="false"
     inkscape:zoom="1.829812"
     inkscape:cx="279.53691"
     inkscape:cy="182.80566"
     inkscape:window-width="2560"
     inkscape:window-height="1361"
     inkscape:window-x="-9"
     inkscape:window-y="-9"
     inkscape:window-maximized="1"
     inkscape:current-layer="layer1" /><defs
     id="defs2" /><g
     inkscape:label="Capa 1"
     inkscape:groupmode="layer"
     id="layer1"><g
       id="g1587"><rect
         style="fill:#ffe1b2;fill-opacity:1;stroke:none;stroke-width:0.452117"
         id="rect491"
         width="85.725006"
         height="84.73867"
         x="11.64476"
         y="12.892579" /><path
         style="fill:#b57453;stroke-width:0.264583"
         d="M 2.1197599,104.51042 V 99.747917 H 55.565593 109.01142 v 4.762503 4.7625 H 55.565593 2.1197599 Z m 4.1804166,2.8575 c 0.7973767,-0.79738 0.00593,-1.97755 -1.1342724,-1.69138 -1.0992475,0.27589 -0.7598421,2.00888 0.3934391,2.00888 0.2328333,0 0.5662083,-0.14288 0.7408333,-0.3175 z m 100.0548635,-0.0667 c 0.70286,-0.84688 -0.32947,-2.14782 -1.24622,-1.5705 -0.91608,0.5769 -0.58971,1.95467 0.46302,1.95467 0.2554,0 0.60785,-0.17288 0.7832,-0.38417 z M 6.2019026,103.30089 c 0.8097335,-0.80973 0.3359812,-1.78601 -0.8035602,-1.65593 -0.9357955,0.10682 -1.2295793,1.1744 -0.4750152,1.72615 0.6074344,0.44417 0.7732972,0.43506 1.2785754,-0.0702 z m 100.0059574,0.0702 c 0.29048,-0.21241 0.4374,-0.5947 0.38129,-0.99218 -0.077,-0.54524 -0.23648,-0.64664 -1.01731,-0.64664 -0.78083,0 -0.94035,0.1014 -1.01731,0.64664 -0.0811,0.5742 0.4996,1.33774 1.01731,1.33774 0.0899,0 0.3761,-0.1555 0.63602,-0.34556 z M 2.0558169,82.756216 C 1.9888577,68.183585 1.9767105,67.875647 1.4583015,67.60882 0.99199993,67.368814 0.92913488,67.069282 0.92913488,65.0875 c 0,-1.981774 0.0628667,-2.28132 0.52916662,-2.521342 0.5225877,-0.268996 0.5300063,-0.574095 0.5966973,-24.540104 L 2.1225294,13.758333 H 6.8836447 11.64476 V 55.694792 97.63125 H 6.8844628 2.1241657 Z M 16.010385,97.102083 c 0.552159,-0.610129 0.888305,-0.724429 0.399949,-0.135996 -0.287333,0.346216 0.696261,0.401966 8.235832,0.466818 l 8.562135,0.07365 -8.838403,0.06235 c -8.823523,0.06224 -8.837596,0.06146 -8.359513,-0.466818 z m 24.028241,0.331031 c 2.738035,-0.04304 7.143348,-0.04297 9.789583,1.48e-4 2.646238,0.04312 0.40603,0.07833 -4.978241,0.07825 -5.384271,-8.2e-5 -7.549375,-0.03536 -4.811342,-0.0784 z m 21.43125,0 c 2.738035,-0.04304 7.143348,-0.04297 9.789583,1.48e-4 2.646238,0.04312 0.40603,0.07833 -4.978241,0.07825 -5.384271,-8.2e-5 -7.549375,-0.03536 -4.811342,-0.0784 z m 21.43125,0 c 2.738035,-0.04304 7.143348,-0.04297 9.789583,1.48e-4 2.646238,0.04312 0.40603,0.07833 -4.978241,0.07825 -5.384271,-8.2e-5 -7.549375,-0.03536 -4.811342,-0.0784 z m 16.5853,-41.738322 V 13.758333 h 4.762494 4.7625 V 55.694792 97.63125 h -4.7625 -4.762494 z m -85.725,34.0951 V 83.179211 L 54.960028,49.593251 C 77.619259,31.120974 96.431134,15.790291 96.764195,15.525067 l 0.605565,-0.482224 v 6.574706 6.574707 l -18.180699,14.8096 C 69.189677,51.147139 58.087099,60.196788 54.516666,63.112195 48.007389,68.427282 39.588885,75.283801 23.55101,88.332418 c -4.729427,3.847921 -8.866849,7.237408 -9.194271,7.532188 l -0.595313,0.535969 z m 4.0756,-0.177112 c 0.674619,-0.493295 0.466898,-1.613747 -0.31985,-1.725277 -1.170261,-0.165899 -1.76059,0.853191 -0.958726,1.655056 0.505278,0.505278 0.671141,0.514387 1.278576,0.07022 z m 0,-4.233334 c 0.674619,-0.493294 0.466898,-1.613746 -0.31985,-1.725276 -1.170261,-0.165899 -1.76059,0.853191 -0.958726,1.655056 0.505278,0.505277 0.671141,0.514387 1.278576,0.07022 z m 77.52656,-58.740164 c 0.562054,-0.410984 0.475784,-1.195579 -0.176639,-1.606445 -0.916755,-0.577329 -1.949077,0.723611 -1.246222,1.570499 0.395351,0.476369 0.80635,0.486751 1.422861,0.03595 z m 0.143541,-4.26928 c 0.702855,-0.846887 -0.329467,-2.147827 -1.246222,-1.570498 -0.916074,0.576901 -0.589711,1.954663 0.463021,1.954663 0.255405,0 0.607846,-0.172874 0.783201,-0.384165 z M 17.20101,96.208437 c 0,-0.05494 0.208359,-0.2633 0.46302,-0.463021 0.419644,-0.329107 0.429003,-0.319749 0.0999,0.0999 -0.345643,0.440729 -0.562915,0.580887 -0.562915,0.363124 z m 2.910416,-2.38125 c 0,-0.05494 0.20836,-0.2633 0.463021,-0.463021 0.419644,-0.329107 0.429002,-0.319749 0.0999,0.0999 -0.345644,0.44073 -0.562916,0.580888 -0.562916,0.363125 z m 2.910417,-2.38125 c 0,-0.05494 0.208359,-0.2633 0.463021,-0.463021 0.419644,-0.329107 0.429002,-0.319749 0.0999,0.0999 -0.345644,0.440729 -0.562916,0.580887 -0.562916,0.363124 z m 1.322917,-1.058333 c 0,-0.05494 0.208359,-0.2633 0.46302,-0.463021 0.419644,-0.329107 0.429003,-0.319749 0.0999,0.0999 -0.345643,0.44073 -0.562915,0.580888 -0.562915,0.363125 z m 2.910416,-2.38125 c 0,-0.05494 0.20836,-0.2633 0.463021,-0.463021 0.419645,-0.329107 0.429004,-0.319749 0.0999,0.0999 -0.345643,0.44073 -0.562917,0.580888 -0.562917,0.363125 z m 2.910417,-2.38125 c 0,-0.05494 0.208359,-0.2633 0.463021,-0.463021 0.419645,-0.329107 0.429003,-0.319749 0.0999,0.0999 -0.345644,0.44073 -0.562917,0.580888 -0.562917,0.363125 z m 1.322917,-1.058333 c 0,-0.05494 0.208359,-0.263301 0.46302,-0.463021 0.419646,-0.329108 0.429004,-0.319749 0.0999,0.0999 -0.345644,0.44073 -0.562917,0.580887 -0.562917,0.363125 z m 5.820833,-4.7625 c 0,-0.05494 0.208359,-0.263301 0.463021,-0.463021 0.419645,-0.329108 0.429003,-0.319749 0.0999,0.0999 -0.345644,0.44073 -0.562917,0.580887 -0.562917,0.363125 z m 1.322917,-1.058334 c 0,-0.05494 0.208359,-0.2633 0.463021,-0.463021 0.419645,-0.329107 0.429003,-0.319749 0.0999,0.0999 -0.345644,0.44073 -0.562917,0.580888 -0.562917,0.363125 z M 16.142676,78.481354 c 0,-0.05494 0.20836,-0.2633 0.463021,-0.463021 0.419644,-0.329107 0.429002,-0.319749 0.0999,0.0999 -0.345644,0.44073 -0.562916,0.580888 -0.562916,0.363125 z m 1.322917,-1.058333 c 0,-0.05494 0.208359,-0.263301 0.463021,-0.463021 0.419644,-0.329108 0.429002,-0.319749 0.0999,0.0999 -0.345644,0.44073 -0.562916,0.580887 -0.562916,0.363125 z m 24.077083,-1.058334 c 0,-0.05494 0.20836,-0.2633 0.463021,-0.463021 0.419645,-0.329107 0.429004,-0.319749 0.0999,0.0999 -0.345643,0.440729 -0.562917,0.580887 -0.562917,0.363124 z M 20.37601,75.041771 c 0,-0.05494 0.208359,-0.263301 0.46302,-0.463021 0.419644,-0.329108 0.429003,-0.319749 0.0999,0.0999 -0.345643,0.44073 -0.562915,0.580887 -0.562915,0.363125 z m 24.077083,-1.058334 c 0,-0.05494 0.208359,-0.2633 0.463021,-0.463021 0.419645,-0.329107 0.429003,-0.319749 0.0999,0.0999 -0.345648,0.440726 -0.562921,0.580884 -0.562921,0.363121 z m 1.322917,-1.058333 c 0,-0.05494 0.208359,-0.2633 0.46302,-0.463021 0.419646,-0.329107 0.429004,-0.319749 0.0999,0.0999 -0.345644,0.44073 -0.562917,0.580888 -0.562917,0.363125 z M 23.286426,72.660521 c 0,-0.05494 0.20836,-0.263301 0.463021,-0.463021 0.419644,-0.329108 0.429002,-0.319749 0.0999,0.0999 -0.345644,0.44073 -0.562916,0.580887 -0.562916,0.363125 z m 1.322917,-1.058334 c 0,-0.05494 0.208359,-0.2633 0.463021,-0.463021 0.419644,-0.329107 0.429002,-0.319749 0.0999,0.0999 -0.345644,0.440729 -0.562916,0.580887 -0.562916,0.363124 z m 24.077083,-1.058333 c 0,-0.05494 0.20836,-0.2633 0.463021,-0.463021 0.419645,-0.329107 0.429004,-0.319749 0.0999,0.0999 -0.345643,0.44073 -0.562917,0.580888 -0.562917,0.363125 z M 26.196843,70.279271 c 0,-0.05494 0.208359,-0.263301 0.463021,-0.463021 0.419645,-0.329108 0.429003,-0.319749 0.0999,0.0999 -0.345645,0.44073 -0.562917,0.580887 -0.562917,0.363125 z m 1.322917,-1.058334 c 0,-0.05494 0.208359,-0.2633 0.46302,-0.463021 0.419646,-0.329107 0.429004,-0.319749 0.0999,0.0999 -0.345644,0.44073 -0.562917,0.580888 -0.562917,0.363125 z m 24.077083,-1.058333 c 0,-0.05494 0.208359,-0.2633 0.463021,-0.463021 0.419645,-0.329107 0.429003,-0.319749 0.0999,0.0999 -0.345644,0.44073 -0.562917,0.580888 -0.562917,0.363125 z m 1.322917,-1.058333 c 0,-0.05494 0.208359,-0.263301 0.463021,-0.463021 0.419645,-0.329108 0.429003,-0.319749 0.0999,0.0999 -0.345644,0.44073 -0.562917,0.580887 -0.562917,0.363125 z M 30.430176,66.839687 c 0,-0.05494 0.20836,-0.2633 0.463021,-0.463021 0.419645,-0.329107 0.429004,-0.319749 0.0999,0.0999 -0.345643,0.44073 -0.562917,0.580888 -0.562917,0.363125 z m 1.322917,-1.058333 c 0,-0.05494 0.208359,-0.2633 0.463021,-0.463021 0.419645,-0.329107 0.429003,-0.319749 0.0999,0.0999 -0.345648,0.440726 -0.562921,0.580884 -0.562921,0.363121 z m 26.9875,-3.439583 c 0,-0.05494 0.208359,-0.263301 0.463021,-0.463021 0.419645,-0.329108 0.429003,-0.319749 0.0999,0.0999 -0.345644,0.44073 -0.562917,0.580887 -0.562917,0.363125 z m 1.322917,-1.058334 c 0,-0.05494 0.208359,-0.2633 0.46302,-0.463021 0.419646,-0.329107 0.429004,-0.319749 0.0999,0.0999 -0.345644,0.44073 -0.562917,0.580888 -0.562917,0.363125 z M 37.573926,61.018854 c 0,-0.05494 0.20836,-0.2633 0.463021,-0.463021 0.419645,-0.329107 0.429004,-0.319749 0.0999,0.0999 -0.345643,0.44073 -0.562917,0.580888 -0.562917,0.363125 z m 25.4,-2.116667 c 0,-0.05494 0.20836,-0.2633 0.463021,-0.463021 0.419645,-0.329107 0.429004,-0.319749 0.0999,0.0999 -0.345643,0.44073 -0.562917,0.580888 -0.562917,0.363125 z M 40.484343,58.637604 c 0,-0.05494 0.208359,-0.2633 0.463021,-0.463021 0.419645,-0.329107 0.429003,-0.319749 0.0999,0.0999 -0.345644,0.44073 -0.562917,0.580888 -0.562917,0.363125 z m 1.322917,-1.058333 c 0,-0.05494 0.208359,-0.263301 0.46302,-0.463021 0.419646,-0.329108 0.429004,-0.319749 0.0999,0.0999 -0.345644,0.44073 -0.562917,0.580887 -0.562917,0.363125 z m 24.077083,-1.058334 c 0,-0.05494 0.208359,-0.2633 0.463021,-0.463021 0.419645,-0.329107 0.429003,-0.319749 0.0999,0.0999 -0.345644,0.44073 -0.562917,0.580888 -0.562917,0.363125 z m 1.322917,-1.058333 c 0,-0.05494 0.208359,-0.2633 0.46302,-0.463021 0.419646,-0.329107 0.429004,-0.319749 0.0999,0.0999 -0.345644,0.44073 -0.562917,0.580888 -0.562917,0.363125 z M 44.717676,55.198021 c 0,-0.05494 0.20836,-0.263301 0.463021,-0.463021 0.419645,-0.329108 0.429004,-0.319749 0.0999,0.0999 -0.345643,0.44073 -0.562917,0.580887 -0.562917,0.363125 z m 25.4,-2.116667 c 0,-0.05494 0.20836,-0.2633 0.463021,-0.463021 0.419645,-0.329107 0.429004,-0.319749 0.0999,0.0999 -0.345643,0.44073 -0.562917,0.580888 -0.562917,0.363125 z M 47.628093,52.816771 c 0,-0.05494 0.208359,-0.263301 0.463021,-0.463021 0.419645,-0.329108 0.429003,-0.319749 0.0999,0.0999 -0.345644,0.44073 -0.562917,0.580887 -0.562917,0.363125 z m 1.322917,-1.058334 c 0,-0.05494 0.208359,-0.2633 0.463021,-0.463021 0.419645,-0.329107 0.429003,-0.319749 0.0999,0.0999 -0.345644,0.44073 -0.562917,0.580888 -0.562917,0.363125 z m 24.077083,-1.058333 c 0,-0.05494 0.208359,-0.2633 0.463021,-0.463021 0.419645,-0.329107 0.429003,-0.319749 0.0999,0.0999 -0.345644,0.44073 -0.562917,0.580888 -0.562917,0.363125 z m 1.322917,-1.058333 c 0,-0.05494 0.208359,-0.263301 0.46302,-0.463021 0.419646,-0.329108 0.429004,-0.319749 0.0999,0.0999 -0.345644,0.44073 -0.562917,0.580887 -0.562917,0.363125 z M 51.861426,49.377187 c 0,-0.05494 0.20836,-0.2633 0.463021,-0.463021 0.419645,-0.329107 0.429004,-0.319749 0.0999,0.0999 -0.345643,0.44073 -0.562917,0.580888 -0.562917,0.363125 z m 28.310417,-4.497916 c 0,-0.05494 0.208359,-0.263301 0.463021,-0.463021 0.419645,-0.329108 0.429003,-0.319749 0.0999,0.0999 -0.345644,0.44073 -0.562917,0.580887 -0.562917,0.363125 z m 1.322917,-1.058334 c 0,-0.05494 0.208359,-0.2633 0.463021,-0.463021 0.419645,-0.329107 0.429003,-0.319749 0.0999,0.0999 -0.345644,0.44073 -0.562917,0.580888 -0.562917,0.363125 z M 59.005176,43.556354 c 0,-0.05494 0.20836,-0.2633 0.463021,-0.463021 0.419645,-0.329107 0.429004,-0.319749 0.0999,0.0999 -0.345643,0.44073 -0.562917,0.580888 -0.562917,0.363125 z M 83.08226,42.498021 c 0,-0.05494 0.208359,-0.263301 0.46302,-0.463021 0.419646,-0.329108 0.429004,-0.319749 0.0999,0.0999 -0.345644,0.44073 -0.562917,0.580887 -0.562917,0.363125 z m 1.322916,-1.058334 c 0,-0.05494 0.20836,-0.2633 0.463021,-0.463021 0.419645,-0.329107 0.429004,-0.319749 0.0999,0.0999 -0.345643,0.44073 -0.562917,0.580888 -0.562917,0.363125 z M 61.915593,41.175104 c 0,-0.05494 0.208359,-0.2633 0.463021,-0.463021 0.419645,-0.329107 0.429003,-0.319749 0.0999,0.0999 -0.345644,0.44073 -0.562917,0.580888 -0.562917,0.363125 z m 1.322917,-1.058333 c 0,-0.05494 0.208359,-0.263301 0.463021,-0.463021 0.419645,-0.329108 0.429003,-0.319749 0.0999,0.0999 -0.345644,0.44073 -0.562917,0.580887 -0.562917,0.363125 z m 24.077083,-1.058334 c 0,-0.05494 0.208359,-0.2633 0.463021,-0.463021 0.419645,-0.329107 0.429003,-0.319749 0.0999,0.0999 -0.345648,0.440726 -0.562921,0.580884 -0.562921,0.363121 z M 64.82601,38.793854 c 0,-0.05494 0.208359,-0.2633 0.463021,-0.463021 0.419645,-0.329107 0.429003,-0.319749 0.0999,0.0999 -0.345644,0.44073 -0.562917,0.580888 -0.562917,0.363125 z m 1.322916,-1.058333 c 0,-0.05494 0.20836,-0.263301 0.463021,-0.463021 0.419645,-0.329108 0.429004,-0.319749 0.0999,0.0999 -0.345643,0.44073 -0.562917,0.580887 -0.562917,0.363125 z M 90.22601,36.677187 c 0,-0.05494 0.208359,-0.2633 0.46302,-0.463021 0.419646,-0.329107 0.429004,-0.319749 0.0999,0.0999 -0.345644,0.44073 -0.562917,0.580888 -0.562917,0.363125 z m 1.322916,-1.058333 c 0,-0.05494 0.20836,-0.2633 0.463021,-0.463021 0.419645,-0.329107 0.429004,-0.319749 0.0999,0.0999 -0.345643,0.44073 -0.562917,0.580888 -0.562917,0.363125 z M 69.059343,35.354271 c 0,-0.05494 0.208359,-0.263301 0.463021,-0.463021 0.419645,-0.329108 0.429003,-0.319749 0.0999,0.0999 -0.345644,0.44073 -0.562917,0.580887 -0.562917,0.363125 z m 1.322917,-1.058334 c 0,-0.05494 0.208359,-0.2633 0.46302,-0.463021 0.419646,-0.329107 0.429004,-0.319749 0.0999,0.0999 -0.345644,0.44073 -0.562917,0.580888 -0.562917,0.363125 z m 24.077083,-1.058333 c 0,-0.05494 0.208359,-0.2633 0.463021,-0.463021 0.419645,-0.329107 0.429003,-0.319749 0.0999,0.0999 -0.345644,0.44073 -0.562917,0.580888 -0.562917,0.363125 z M 71.96976,32.973021 c 0,-0.05494 0.208359,-0.263301 0.46302,-0.463021 0.419646,-0.329108 0.429004,-0.319749 0.0999,0.0999 -0.345644,0.44073 -0.562917,0.580887 -0.562917,0.363125 z m 1.322916,-1.058334 c 0,-0.05494 0.20836,-0.2633 0.463021,-0.463021 0.419645,-0.329107 0.429004,-0.319749 0.0999,0.0999 -0.345643,0.44073 -0.562917,0.580888 -0.562917,0.363125 z m 5.820834,-4.7625 c 0,-0.05494 0.208359,-0.2633 0.46302,-0.463021 0.419646,-0.329106 0.429004,-0.319747 0.0999,0.0999 -0.345644,0.44073 -0.562917,0.580888 -0.562917,0.363125 z m 1.322916,-1.058332 c 0,-0.05494 0.20836,-0.263301 0.463021,-0.463021 0.419645,-0.329107 0.429004,-0.319749 0.0999,0.0999 -0.345643,0.440729 -0.562917,0.580887 -0.562917,0.363126 z m 2.910417,-2.38125 c 0,-0.05494 0.208359,-0.263301 0.463021,-0.463021 0.419645,-0.329107 0.429003,-0.319749 0.0999,0.0999 -0.345644,0.440729 -0.562917,0.580887 -0.562917,0.363126 z m 2.910417,-2.38125 c 0,-0.05494 0.208359,-0.263301 0.46302,-0.463021 0.419646,-0.329107 0.429004,-0.319749 0.0999,0.0999 -0.345644,0.440729 -0.562917,0.580887 -0.562917,0.363126 z m 1.322916,-1.058333 c 0,-0.05494 0.20836,-0.263302 0.463021,-0.463021 0.419645,-0.329107 0.429004,-0.319749 0.0999,0.0999 -0.345643,0.440729 -0.562917,0.580887 -0.562917,0.363126 z m 2.910417,-2.38125 c 0,-0.05494 0.208359,-0.263302 0.463021,-0.463021 0.419645,-0.329107 0.429003,-0.319749 0.0999,0.0999 -0.345644,0.440729 -0.562917,0.580887 -0.562917,0.363126 z m 2.910417,-2.38125 c 0,-0.05494 0.208359,-0.263302 0.463021,-0.463021 0.419645,-0.329107 0.429003,-0.319749 0.0999,0.0999 -0.345644,0.440729 -0.562917,0.580887 -0.562917,0.363126 z m 1.322916,-1.058333 c 0,-0.05494 0.20836,-0.263302 0.463021,-0.463021 0.419645,-0.329108 0.429004,-0.319749 0.0999,0.09989 -0.345643,0.44073 -0.562917,0.580888 -0.562917,0.363127 z M 2.1197599,6.8791667 v -4.7625 H 29.471739 c 23.624403,0 27.395554,-0.052507 27.671736,-0.385285 0.175866,-0.2119067 0.261345,-0.4797973 0.189953,-0.5953125 -0.07139,-0.1155151 0.860935,-0.21002753 2.071841,-0.21002753 1.210902,0 2.156224,0.0454203 2.100709,0.10093403 -0.05551,0.055514 0.01812,0.3234043 0.16365,0.5953125 0.255334,0.477095 1.087491,0.4943785 23.80319,0.4943785 h 23.538602 v 4.7625 4.7625003 H 55.565593 2.1197599 Z m 4.2227846,2.526252 C 7.0453985,8.5585313 6.0130764,7.2575915 5.0963224,7.8349205 4.5084894,8.2051104 4.3648212,8.9098078 4.7761419,9.4054187 c 0.408678,0.4924268 1.1577246,0.4924268 1.5664026,0 z m 100.0124955,0 c 0.41132,-0.4956109 0.26765,-1.2003083 -0.32018,-1.5704982 -0.91675,-0.577329 -1.94908,0.7236108 -1.24622,1.5704982 0.40868,0.4924268 1.15772,0.4924268 1.5664,0 z M 6.2019026,5.4050594 C 7.0037666,4.6031957 6.413438,3.5841054 5.2431772,3.750002 4.4564292,3.8615318 4.2487077,4.9819862 4.9233272,5.4752801 5.5307616,5.9194472 5.6966244,5.9103379 6.2019026,5.4050594 Z M 106.22174,5.4651251 c 0.35835,-0.262029 0.44002,-0.5407512 0.31012,-1.0583333 -0.25625,-1.0209752 -1.66379,-1.0209752 -1.92004,0 -0.1299,0.5175821 -0.0482,0.7963043 0.31012,1.0583333 0.26755,0.1956395 0.56001,0.3557082 0.6499,0.3557082 0.0899,0 0.38235,-0.1600687 0.6499,-0.3557082 z"
         id="path437" /><path
         style="fill:#080605;stroke-width:0.264583"
         d="M 0.06769244,89.524128 C 0.13112618,69.282223 0.16451465,67.904887 0.59840571,67.631212 c 0.33769297,-0.212997 0.58834869,-0.213003 0.92604169,-2.1e-5 0.4306527,0.271613 0.4677988,1.33042 0.5313695,15.146044 L 2.1241657,97.63125 H 6.8844628 11.64476 V 55.694792 13.758333 H 6.8836447 2.1225294 l -0.067531,24.2467 c -0.063395,22.761916 -0.095884,24.264586 -0.530551,24.538752 -0.337713,0.213011 -0.58832869,0.213011 -0.92604169,-5e-6 C 0.16237193,62.268746 0.13172869,60.464547 0.07265523,31.588882 0.03370977,12.551975 0.10527678,0.775565 0.26140978,0.52916667 0.48183072,0.18131356 3.9211115,0.12316572 28.105388,0.05840918 43.281261,0.01777381 55.962338,0.04894526 56.285561,0.12767907 57.079428,0.32105812 57.560795,1.22854 57.139057,1.7367044 56.868714,2.062448 52.920725,2.1166667 29.471739,2.1166667 H 2.1197599 v 4.7625 4.7625003 H 55.565593 109.01142 v -4.7625003 -4.7625 H 85.472818 c -23.176865,0 -23.542908,-0.00804 -23.818562,-0.5231029 C 61.431898,1.1780846 61.484417,0.96034212 61.909529,0.53523047 62.438801,0.00595818 62.708176,0 86.107744,0 100.84238,0 110.0268,0.09735982 110.44941,0.25803467 l 0.67868,0.25803467 V 55.820535 111.125 H 55.564045 0 Z M 109.01142,104.51042 V 99.747917 H 55.565593 2.1197599 v 4.762503 4.7625 H 55.565593 109.01142 Z m -104.1929101,2.8575 c -0.174625,-0.17463 -0.3175,-0.58908 -0.3175,-0.921 0,-0.72556 1.1106041,-1.11917 1.7232275,-0.61073 0.7416845,0.61554 0.29811,1.84923 -0.6648942,1.84923 -0.2328333,0 -0.5662083,-0.14288 -0.7408333,-0.3175 z m 99.9701301,-0.0667 c -0.70286,-0.84688 0.32947,-2.14782 1.24622,-1.5705 0.91608,0.5769 0.58971,1.95467 -0.46302,1.95467 -0.2554,0 -0.60785,-0.17288 -0.7832,-0.38417 z M 4.9233272,103.37111 c -0.7545641,-0.55175 -0.4607803,-1.61933 0.4750152,-1.72615 1.1395414,-0.13008 1.6132937,0.8462 0.8035602,1.65593 -0.5052782,0.50528 -0.671141,0.51439 -1.2785754,0.0702 z m 100.0124928,0 c -0.29048,-0.21241 -0.4374,-0.5947 -0.38129,-0.99218 0.077,-0.54524 0.23648,-0.64664 1.01731,-0.64664 0.78083,0 0.94035,0.1014 1.01731,0.64664 0.081,0.5742 -0.4996,1.33774 -1.01731,1.33774 -0.0899,0 -0.3761,-0.1555 -0.63602,-0.34556 z M 33.07601,90.455104 c 0,-5.700657 -0.068,-7.123668 -0.33073,-6.920907 -1.216482,0.938824 -16.308121,13.217086 -16.727546,13.609206 -0.507814,0.474755 -0.285932,0.487847 8.268229,0.487847 H 33.07601 Z M 54.50726,81.738235 V 65.845216 l -0.727604,0.533213 c -0.400183,0.293266 -4.716198,3.792942 -9.591146,7.777054 l -8.863542,7.243836 -0.06997,8.115967 -0.06997,8.115964 h 9.661115 9.661115 z m 21.43125,-8.73125 V 48.382716 l -0.727604,0.533213 c -0.400183,0.293266 -4.716198,3.792987 -9.591146,7.777157 l -8.863542,7.243942 -0.0681,16.847111 -0.0681,16.847111 h 9.659249 9.65925 z m 21.43125,-8.73125 V 30.920216 l -0.727605,0.531159 c -0.400182,0.292137 -4.716197,3.790268 -9.591145,7.773623 l -8.863542,7.242466 -0.06746,25.581893 -0.06746,25.581893 h 9.658609 9.658607 z m 11.64166,-8.580943 V 13.758333 h -4.7625 -4.762494 V 55.694792 97.63125 h 4.762494 4.7625 z M 23.55101,88.332418 C 39.588885,75.283801 48.007389,68.427282 54.516666,63.112195 58.087099,60.196788 69.189677,51.147139 79.189061,43.001856 l 18.180699,-14.8096 v -6.574707 -6.574706 l -0.605565,0.482224 C 96.431134,15.790291 77.619259,31.120974 54.960028,49.593251 l -41.198602,33.58596 v 6.610681 6.610683 l 0.595313,-0.535969 c 0.327422,-0.29478 4.464844,-3.684267 9.194271,-7.532188 z m -6.99256,1.210141 c -0.801864,-0.801865 -0.211535,-1.820955 0.958726,-1.655056 0.786748,0.11153 0.994469,1.231982 0.31985,1.725277 -0.607435,0.444166 -0.773298,0.435057 -1.278576,-0.07022 z m 0,-4.233333 c -0.801864,-0.801865 -0.211535,-1.820955 0.958726,-1.655056 0.786748,0.11153 0.994469,1.231982 0.31985,1.725276 -0.607435,0.444167 -0.773298,0.435057 -1.278576,-0.07022 z m 77.382275,-58.70589 c -0.702855,-0.846888 0.329467,-2.147828 1.246222,-1.570499 0.652423,0.410866 0.738693,1.195461 0.176639,1.606445 -0.616511,0.450805 -1.02751,0.440423 -1.422861,-0.03595 z m 0,-4.233334 c -0.702855,-0.846887 0.329467,-2.147827 1.246222,-1.570498 0.916075,0.576901 0.589711,1.954663 -0.463021,1.954663 -0.255405,0 -0.607845,-0.172874 -0.783201,-0.384165 z M 23.881739,72.255086 33.07601,64.783798 V 39.271067 13.758333 h -9.657292 -9.657292 v 33.378508 c 0,31.762946 0.02241,33.359413 0.463021,32.984019 0.254662,-0.216969 4.600443,-3.756567 9.657292,-7.865774 z M 45.312989,54.783178 54.50726,47.306884 V 30.532607 13.758333 h -9.657292 -9.657292 v 24.647258 c 0,23.448309 0.02252,24.627959 0.463021,24.250568 0.254662,-0.218178 4.600443,-3.76102 9.657292,-7.872981 z m 21.43125,-17.4625 9.194271,-7.476294 v -8.043026 -8.043025 h -9.657292 -9.657292 v 15.916008 c 0,15.132833 0.02278,15.896487 0.463021,15.519318 0.254662,-0.218178 4.600443,-3.76102 9.657292,-7.872981 z M 86.918718,20.900515 c 4.365625,-3.538139 8.111842,-6.592551 8.324927,-6.787581 0.324569,-0.297071 -1.038315,-0.354601 -8.400521,-0.354601 h -8.787948 v 7.184758 c 0,6.817543 0.02365,7.164456 0.463021,6.787581 0.254662,-0.218448 4.034896,-3.292018 8.400521,-6.830157 z M 4.7761419,9.4054187 C 4.3648212,8.9098078 4.5084894,8.2051104 5.0963224,7.8349205 c 0.916754,-0.577329 1.9490761,0.7236108 1.2462221,1.5704982 -0.408678,0.4924268 -1.1577246,0.4924268 -1.5664026,0 z m 100.0124981,0 c -0.41132,-0.4956109 -0.26765,-1.2003083 0.32018,-1.5704982 0.91675,-0.577329 1.94908,0.7236108 1.24622,1.5704982 -0.40868,0.4924268 -1.15772,0.4924268 -1.5664,0 z M 4.9233272,5.4752801 C 4.2487077,4.9819862 4.4564292,3.8615318 5.2431772,3.750002 6.413438,3.5841054 7.0037666,4.6031957 6.2019026,5.4050594 5.6966244,5.9103379 5.5307616,5.9194472 4.9233272,5.4752801 Z M 104.92194,5.4651251 c -0.35835,-0.2620291 -0.44002,-0.5407512 -0.31012,-1.0583334 0.25625,-1.0209752 1.66379,-1.0209752 1.92004,0 0.1299,0.5175822 0.0482,0.7963043 -0.31012,1.0583334 -0.26755,0.1956392 -0.56001,0.3557079 -0.6499,0.3557079 -0.0899,0 -0.38235,-0.1600687 -0.6499,-0.3557079 z"
         id="path435" /></g></g></svg>
